<mxfile host="app.diagrams.net" agent="Mozilla/5.0 (Windows NT 10.0; Win64; x64) AppleWebKit/537.36 (KHTML, like Gecko) Chrome/126.0.0.0 Safari/537.36 OPR/112.0.0.0" version="24.7.14">
  <diagram name="Page-1" id="FnSuvaPCpmPX8eTvTKbw">
    <mxGraphModel dx="2532" dy="2012" grid="1" gridSize="10" guides="1" tooltips="1" connect="1" arrows="1" fold="1" page="1" pageScale="1" pageWidth="850" pageHeight="1100" math="0" shadow="0">
      <root>
        <mxCell id="0" />
        <mxCell id="1" parent="0" />
        <mxCell id="zPi41bnw9IMBci43e7Ru-1" value="tb_pelanggan" style="rounded=0;whiteSpace=wrap;html=1;" parent="1" vertex="1">
          <mxGeometry x="-90" y="-40" width="120" height="60" as="geometry" />
        </mxCell>
        <mxCell id="zPi41bnw9IMBci43e7Ru-2" value="tb_komputer" style="rounded=0;whiteSpace=wrap;html=1;" parent="1" vertex="1">
          <mxGeometry x="360" y="-40" width="120" height="60" as="geometry" />
        </mxCell>
        <mxCell id="zPi41bnw9IMBci43e7Ru-3" value="tb_transaksi" style="rounded=0;whiteSpace=wrap;html=1;" parent="1" vertex="1">
          <mxGeometry x="-90" y="300" width="120" height="60" as="geometry" />
        </mxCell>
        <mxCell id="zPi41bnw9IMBci43e7Ru-4" value="tb_det_trs" style="rounded=0;whiteSpace=wrap;html=1;" parent="1" vertex="1">
          <mxGeometry x="360" y="300" width="120" height="60" as="geometry" />
        </mxCell>
        <mxCell id="zPi41bnw9IMBci43e7Ru-5" value="tb_supplier" style="rounded=0;whiteSpace=wrap;html=1;" parent="1" vertex="1">
          <mxGeometry x="800" y="-40" width="120" height="60" as="geometry" />
        </mxCell>
        <mxCell id="zPi41bnw9IMBci43e7Ru-6" value="melakukan" style="rhombus;whiteSpace=wrap;html=1;" parent="1" vertex="1">
          <mxGeometry x="-80" y="110" width="100" height="100" as="geometry" />
        </mxCell>
        <mxCell id="zPi41bnw9IMBci43e7Ru-7" value="berisi" style="rhombus;whiteSpace=wrap;html=1;" parent="1" vertex="1">
          <mxGeometry x="370" y="110" width="100" height="100" as="geometry" />
        </mxCell>
        <mxCell id="zPi41bnw9IMBci43e7Ru-8" value="mempunyai" style="rhombus;whiteSpace=wrap;html=1;" parent="1" vertex="1">
          <mxGeometry x="610" y="-60" width="100" height="100" as="geometry" />
        </mxCell>
        <mxCell id="zPi41bnw9IMBci43e7Ru-9" value="" style="endArrow=none;html=1;rounded=0;entryX=0.5;entryY=1;entryDx=0;entryDy=0;exitX=0.5;exitY=0;exitDx=0;exitDy=0;" parent="1" source="zPi41bnw9IMBci43e7Ru-6" target="zPi41bnw9IMBci43e7Ru-1" edge="1">
          <mxGeometry width="50" height="50" relative="1" as="geometry">
            <mxPoint x="-110" y="230" as="sourcePoint" />
            <mxPoint x="-60" y="180" as="targetPoint" />
          </mxGeometry>
        </mxCell>
        <mxCell id="zPi41bnw9IMBci43e7Ru-10" value="" style="endArrow=none;html=1;rounded=0;entryX=0.5;entryY=1;entryDx=0;entryDy=0;exitX=0.5;exitY=0;exitDx=0;exitDy=0;" parent="1" source="zPi41bnw9IMBci43e7Ru-3" target="zPi41bnw9IMBci43e7Ru-6" edge="1">
          <mxGeometry width="50" height="50" relative="1" as="geometry">
            <mxPoint x="-70" y="290" as="sourcePoint" />
            <mxPoint x="-20" y="240" as="targetPoint" />
          </mxGeometry>
        </mxCell>
        <mxCell id="zPi41bnw9IMBci43e7Ru-11" value="" style="endArrow=none;html=1;rounded=0;entryX=0.5;entryY=1;entryDx=0;entryDy=0;exitX=0.5;exitY=0;exitDx=0;exitDy=0;" parent="1" source="zPi41bnw9IMBci43e7Ru-4" target="zPi41bnw9IMBci43e7Ru-7" edge="1">
          <mxGeometry width="50" height="50" relative="1" as="geometry">
            <mxPoint x="400" y="310" as="sourcePoint" />
            <mxPoint x="450" y="260" as="targetPoint" />
          </mxGeometry>
        </mxCell>
        <mxCell id="zPi41bnw9IMBci43e7Ru-12" value="" style="endArrow=none;html=1;rounded=0;entryX=0.5;entryY=1;entryDx=0;entryDy=0;exitX=0.5;exitY=0;exitDx=0;exitDy=0;" parent="1" source="zPi41bnw9IMBci43e7Ru-7" target="zPi41bnw9IMBci43e7Ru-2" edge="1">
          <mxGeometry width="50" height="50" relative="1" as="geometry">
            <mxPoint x="400" y="310" as="sourcePoint" />
            <mxPoint x="450" y="260" as="targetPoint" />
          </mxGeometry>
        </mxCell>
        <mxCell id="zPi41bnw9IMBci43e7Ru-13" value="mempunyai" style="rhombus;whiteSpace=wrap;html=1;" parent="1" vertex="1">
          <mxGeometry x="140" y="280" width="100" height="100" as="geometry" />
        </mxCell>
        <mxCell id="zPi41bnw9IMBci43e7Ru-14" value="" style="endArrow=none;html=1;rounded=0;exitX=1;exitY=0.5;exitDx=0;exitDy=0;entryX=0;entryY=0.5;entryDx=0;entryDy=0;" parent="1" source="zPi41bnw9IMBci43e7Ru-3" target="zPi41bnw9IMBci43e7Ru-13" edge="1">
          <mxGeometry width="50" height="50" relative="1" as="geometry">
            <mxPoint x="400" y="310" as="sourcePoint" />
            <mxPoint x="450" y="260" as="targetPoint" />
          </mxGeometry>
        </mxCell>
        <mxCell id="zPi41bnw9IMBci43e7Ru-15" value="" style="endArrow=none;html=1;rounded=0;entryX=1;entryY=0.5;entryDx=0;entryDy=0;exitX=0;exitY=0.5;exitDx=0;exitDy=0;" parent="1" source="zPi41bnw9IMBci43e7Ru-4" target="zPi41bnw9IMBci43e7Ru-13" edge="1">
          <mxGeometry width="50" height="50" relative="1" as="geometry">
            <mxPoint x="300" y="400" as="sourcePoint" />
            <mxPoint x="350" y="350" as="targetPoint" />
          </mxGeometry>
        </mxCell>
        <mxCell id="zPi41bnw9IMBci43e7Ru-16" value="" style="endArrow=none;html=1;rounded=0;exitX=1;exitY=0.5;exitDx=0;exitDy=0;entryX=0;entryY=0.5;entryDx=0;entryDy=0;" parent="1" source="zPi41bnw9IMBci43e7Ru-2" target="zPi41bnw9IMBci43e7Ru-8" edge="1">
          <mxGeometry width="50" height="50" relative="1" as="geometry">
            <mxPoint x="540" y="80" as="sourcePoint" />
            <mxPoint x="590" y="30" as="targetPoint" />
          </mxGeometry>
        </mxCell>
        <mxCell id="zPi41bnw9IMBci43e7Ru-18" value="&lt;u&gt;id_pelanggan&lt;/u&gt;" style="ellipse;whiteSpace=wrap;html=1;" parent="1" vertex="1">
          <mxGeometry x="-210" y="-130" width="120" height="50" as="geometry" />
        </mxCell>
        <mxCell id="zPi41bnw9IMBci43e7Ru-19" value="nama_pelanggan" style="ellipse;whiteSpace=wrap;html=1;" parent="1" vertex="1">
          <mxGeometry x="-190" y="-195" width="120" height="50" as="geometry" />
        </mxCell>
        <mxCell id="zPi41bnw9IMBci43e7Ru-20" value="&lt;font style=&quot;font-size: 12px;&quot;&gt;no_telp&lt;/font&gt;" style="ellipse;whiteSpace=wrap;html=1;" parent="1" vertex="1">
          <mxGeometry x="20" y="-110" width="96" height="40" as="geometry" />
        </mxCell>
        <mxCell id="zPi41bnw9IMBci43e7Ru-21" value="alamat" style="ellipse;whiteSpace=wrap;html=1;" parent="1" vertex="1">
          <mxGeometry x="10" y="-180" width="96" height="40" as="geometry" />
        </mxCell>
        <mxCell id="zPi41bnw9IMBci43e7Ru-23" value="&lt;u&gt;id_transaksi&lt;/u&gt;" style="ellipse;whiteSpace=wrap;html=1;" parent="1" vertex="1">
          <mxGeometry x="-210" y="380" width="120" height="50" as="geometry" />
        </mxCell>
        <mxCell id="zPi41bnw9IMBci43e7Ru-24" value="id_pelanggan" style="ellipse;whiteSpace=wrap;html=1;" parent="1" vertex="1">
          <mxGeometry x="60" y="370" width="120" height="50" as="geometry" />
        </mxCell>
        <mxCell id="zPi41bnw9IMBci43e7Ru-25" value="total_pembayaran" style="ellipse;whiteSpace=wrap;html=1;" parent="1" vertex="1">
          <mxGeometry x="-90" y="480" width="120" height="50" as="geometry" />
        </mxCell>
        <mxCell id="zPi41bnw9IMBci43e7Ru-26" value="tgl_transaksi" style="ellipse;whiteSpace=wrap;html=1;" parent="1" vertex="1">
          <mxGeometry x="-2" y="430" width="120" height="50" as="geometry" />
        </mxCell>
        <mxCell id="zPi41bnw9IMBci43e7Ru-27" value="id_transaksi" style="ellipse;whiteSpace=wrap;html=1;" parent="1" vertex="1">
          <mxGeometry x="504" y="390" width="120" height="50" as="geometry" />
        </mxCell>
        <mxCell id="zPi41bnw9IMBci43e7Ru-28" value="&lt;u&gt;id_det_trs&lt;/u&gt;" style="ellipse;whiteSpace=wrap;html=1;" parent="1" vertex="1">
          <mxGeometry x="270" y="390" width="120" height="50" as="geometry" />
        </mxCell>
        <mxCell id="zPi41bnw9IMBci43e7Ru-29" value="id_komputer" style="ellipse;whiteSpace=wrap;html=1;" parent="1" vertex="1">
          <mxGeometry x="342" y="450" width="120" height="50" as="geometry" />
        </mxCell>
        <mxCell id="zPi41bnw9IMBci43e7Ru-30" value="jumlah" style="ellipse;whiteSpace=wrap;html=1;" parent="1" vertex="1">
          <mxGeometry x="470" y="460" width="96" height="40" as="geometry" />
        </mxCell>
        <mxCell id="zPi41bnw9IMBci43e7Ru-31" value="&lt;u&gt;id_komputer&lt;/u&gt;" style="ellipse;whiteSpace=wrap;html=1;" parent="1" vertex="1">
          <mxGeometry x="230" y="-120" width="120" height="50" as="geometry" />
        </mxCell>
        <mxCell id="zPi41bnw9IMBci43e7Ru-32" value="nama_komputer" style="ellipse;whiteSpace=wrap;html=1;" parent="1" vertex="1">
          <mxGeometry x="540" y="-115" width="120" height="50" as="geometry" />
        </mxCell>
        <mxCell id="zPi41bnw9IMBci43e7Ru-33" value="spesifikasi" style="ellipse;whiteSpace=wrap;html=1;" parent="1" vertex="1">
          <mxGeometry x="270" y="-190" width="120" height="50" as="geometry" />
        </mxCell>
        <mxCell id="zPi41bnw9IMBci43e7Ru-34" value="harga" style="ellipse;whiteSpace=wrap;html=1;" parent="1" vertex="1">
          <mxGeometry x="504" y="-160" width="96" height="40" as="geometry" />
        </mxCell>
        <mxCell id="zPi41bnw9IMBci43e7Ru-35" value="stok" style="ellipse;whiteSpace=wrap;html=1;" parent="1" vertex="1">
          <mxGeometry x="342" y="-245" width="96" height="40" as="geometry" />
        </mxCell>
        <mxCell id="zPi41bnw9IMBci43e7Ru-36" value="id_supplier" style="ellipse;whiteSpace=wrap;html=1;" parent="1" vertex="1">
          <mxGeometry x="438" y="-220" width="120" height="50" as="geometry" />
        </mxCell>
        <mxCell id="zPi41bnw9IMBci43e7Ru-37" value="&lt;u&gt;id_supplier&lt;/u&gt;" style="ellipse;whiteSpace=wrap;html=1;" parent="1" vertex="1">
          <mxGeometry x="720" y="-130" width="120" height="50" as="geometry" />
        </mxCell>
        <mxCell id="zPi41bnw9IMBci43e7Ru-38" value="nama_supplier" style="ellipse;whiteSpace=wrap;html=1;" parent="1" vertex="1">
          <mxGeometry x="890" y="-130" width="120" height="50" as="geometry" />
        </mxCell>
        <mxCell id="zPi41bnw9IMBci43e7Ru-39" value="kontak_supplier" style="ellipse;whiteSpace=wrap;html=1;" parent="1" vertex="1">
          <mxGeometry x="810" y="-180" width="120" height="50" as="geometry" />
        </mxCell>
        <mxCell id="zPi41bnw9IMBci43e7Ru-43" value="" style="endArrow=none;html=1;rounded=0;entryX=1;entryY=0.5;entryDx=0;entryDy=0;" parent="1" source="zPi41bnw9IMBci43e7Ru-1" target="zPi41bnw9IMBci43e7Ru-18" edge="1">
          <mxGeometry width="50" height="50" relative="1" as="geometry">
            <mxPoint x="90" as="sourcePoint" />
            <mxPoint x="140" y="-50" as="targetPoint" />
          </mxGeometry>
        </mxCell>
        <mxCell id="zPi41bnw9IMBci43e7Ru-46" value="" style="endArrow=none;html=1;rounded=0;entryX=1;entryY=0.5;entryDx=0;entryDy=0;exitX=0.417;exitY=0;exitDx=0;exitDy=0;exitPerimeter=0;" parent="1" source="zPi41bnw9IMBci43e7Ru-1" target="zPi41bnw9IMBci43e7Ru-19" edge="1">
          <mxGeometry width="50" height="50" relative="1" as="geometry">
            <mxPoint x="90" as="sourcePoint" />
            <mxPoint x="140" y="-50" as="targetPoint" />
          </mxGeometry>
        </mxCell>
        <mxCell id="zPi41bnw9IMBci43e7Ru-47" value="" style="endArrow=none;html=1;rounded=0;entryX=0;entryY=0.5;entryDx=0;entryDy=0;exitX=0.638;exitY=0.016;exitDx=0;exitDy=0;exitPerimeter=0;" parent="1" source="zPi41bnw9IMBci43e7Ru-1" target="zPi41bnw9IMBci43e7Ru-21" edge="1">
          <mxGeometry width="50" height="50" relative="1" as="geometry">
            <mxPoint x="-30" y="-80" as="sourcePoint" />
            <mxPoint x="20" y="-130" as="targetPoint" />
          </mxGeometry>
        </mxCell>
        <mxCell id="zPi41bnw9IMBci43e7Ru-51" value="" style="endArrow=none;html=1;rounded=0;entryX=0;entryY=0.5;entryDx=0;entryDy=0;exitX=0.75;exitY=0;exitDx=0;exitDy=0;" parent="1" source="zPi41bnw9IMBci43e7Ru-1" target="zPi41bnw9IMBci43e7Ru-20" edge="1">
          <mxGeometry width="50" height="50" relative="1" as="geometry">
            <mxPoint x="-30" y="-50" as="sourcePoint" />
            <mxPoint x="20" y="-100" as="targetPoint" />
          </mxGeometry>
        </mxCell>
        <mxCell id="zPi41bnw9IMBci43e7Ru-53" value="" style="endArrow=none;html=1;rounded=0;exitX=0.5;exitY=0;exitDx=0;exitDy=0;entryX=0;entryY=1;entryDx=0;entryDy=0;" parent="1" source="zPi41bnw9IMBci43e7Ru-23" target="zPi41bnw9IMBci43e7Ru-3" edge="1">
          <mxGeometry width="50" height="50" relative="1" as="geometry">
            <mxPoint x="-160" y="380" as="sourcePoint" />
            <mxPoint x="-110" y="330" as="targetPoint" />
          </mxGeometry>
        </mxCell>
        <mxCell id="gLUYTTMf_Ll6asyxpFgf-1" value="" style="endArrow=none;html=1;rounded=0;exitX=0;exitY=0.5;exitDx=0;exitDy=0;entryX=1;entryY=1;entryDx=0;entryDy=0;" parent="1" source="zPi41bnw9IMBci43e7Ru-24" target="zPi41bnw9IMBci43e7Ru-3" edge="1">
          <mxGeometry width="50" height="50" relative="1" as="geometry">
            <mxPoint x="-70" y="420" as="sourcePoint" />
            <mxPoint x="-20" y="370" as="targetPoint" />
          </mxGeometry>
        </mxCell>
        <mxCell id="gLUYTTMf_Ll6asyxpFgf-2" value="" style="endArrow=none;html=1;rounded=0;exitX=0.5;exitY=0;exitDx=0;exitDy=0;entryX=0.347;entryY=1.005;entryDx=0;entryDy=0;entryPerimeter=0;" parent="1" source="zPi41bnw9IMBci43e7Ru-25" target="zPi41bnw9IMBci43e7Ru-3" edge="1">
          <mxGeometry width="50" height="50" relative="1" as="geometry">
            <mxPoint x="-50" y="430" as="sourcePoint" />
            <mxPoint y="380" as="targetPoint" />
          </mxGeometry>
        </mxCell>
        <mxCell id="gLUYTTMf_Ll6asyxpFgf-3" value="" style="endArrow=none;html=1;rounded=0;exitX=0.5;exitY=0;exitDx=0;exitDy=0;entryX=0.75;entryY=1;entryDx=0;entryDy=0;" parent="1" source="zPi41bnw9IMBci43e7Ru-26" target="zPi41bnw9IMBci43e7Ru-3" edge="1">
          <mxGeometry width="50" height="50" relative="1" as="geometry">
            <mxPoint x="10" y="510" as="sourcePoint" />
            <mxPoint x="60" y="460" as="targetPoint" />
          </mxGeometry>
        </mxCell>
        <mxCell id="gLUYTTMf_Ll6asyxpFgf-4" value="" style="endArrow=none;html=1;rounded=0;exitX=0.5;exitY=0;exitDx=0;exitDy=0;entryX=0.25;entryY=1;entryDx=0;entryDy=0;" parent="1" source="zPi41bnw9IMBci43e7Ru-28" target="zPi41bnw9IMBci43e7Ru-4" edge="1">
          <mxGeometry width="50" height="50" relative="1" as="geometry">
            <mxPoint x="410" y="420" as="sourcePoint" />
            <mxPoint x="460" y="370" as="targetPoint" />
          </mxGeometry>
        </mxCell>
        <mxCell id="gLUYTTMf_Ll6asyxpFgf-5" value="" style="endArrow=none;html=1;rounded=0;exitX=0.5;exitY=0;exitDx=0;exitDy=0;entryX=0.75;entryY=1;entryDx=0;entryDy=0;" parent="1" source="zPi41bnw9IMBci43e7Ru-27" target="zPi41bnw9IMBci43e7Ru-4" edge="1">
          <mxGeometry width="50" height="50" relative="1" as="geometry">
            <mxPoint x="480" y="420" as="sourcePoint" />
            <mxPoint x="530" y="370" as="targetPoint" />
          </mxGeometry>
        </mxCell>
        <mxCell id="gLUYTTMf_Ll6asyxpFgf-6" value="" style="endArrow=none;html=1;rounded=0;exitX=0.5;exitY=0;exitDx=0;exitDy=0;entryX=0.672;entryY=0.997;entryDx=0;entryDy=0;entryPerimeter=0;" parent="1" source="zPi41bnw9IMBci43e7Ru-30" target="zPi41bnw9IMBci43e7Ru-4" edge="1">
          <mxGeometry width="50" height="50" relative="1" as="geometry">
            <mxPoint x="410" y="490" as="sourcePoint" />
            <mxPoint x="420" y="370" as="targetPoint" />
          </mxGeometry>
        </mxCell>
        <mxCell id="gLUYTTMf_Ll6asyxpFgf-7" value="" style="endArrow=none;html=1;rounded=0;exitX=0.5;exitY=0;exitDx=0;exitDy=0;entryX=0.377;entryY=1.004;entryDx=0;entryDy=0;entryPerimeter=0;" parent="1" source="zPi41bnw9IMBci43e7Ru-29" target="zPi41bnw9IMBci43e7Ru-4" edge="1">
          <mxGeometry width="50" height="50" relative="1" as="geometry">
            <mxPoint x="420" y="460" as="sourcePoint" />
            <mxPoint x="410" y="380" as="targetPoint" />
          </mxGeometry>
        </mxCell>
        <mxCell id="gLUYTTMf_Ll6asyxpFgf-8" value="" style="endArrow=none;html=1;rounded=0;exitX=0.5;exitY=1;exitDx=0;exitDy=0;entryX=0.25;entryY=0;entryDx=0;entryDy=0;" parent="1" source="zPi41bnw9IMBci43e7Ru-31" target="zPi41bnw9IMBci43e7Ru-2" edge="1">
          <mxGeometry width="50" height="50" relative="1" as="geometry">
            <mxPoint x="400" y="-130" as="sourcePoint" />
            <mxPoint x="450" y="-180" as="targetPoint" />
          </mxGeometry>
        </mxCell>
        <mxCell id="gLUYTTMf_Ll6asyxpFgf-9" value="" style="endArrow=none;html=1;rounded=0;exitX=0.5;exitY=1;exitDx=0;exitDy=0;entryX=0.386;entryY=-0.005;entryDx=0;entryDy=0;entryPerimeter=0;" parent="1" source="zPi41bnw9IMBci43e7Ru-33" target="zPi41bnw9IMBci43e7Ru-2" edge="1">
          <mxGeometry width="50" height="50" relative="1" as="geometry">
            <mxPoint x="400" y="-130" as="sourcePoint" />
            <mxPoint x="450" y="-180" as="targetPoint" />
          </mxGeometry>
        </mxCell>
        <mxCell id="gLUYTTMf_Ll6asyxpFgf-10" value="" style="endArrow=none;html=1;rounded=0;entryX=0.5;entryY=1;entryDx=0;entryDy=0;" parent="1" target="zPi41bnw9IMBci43e7Ru-32" edge="1">
          <mxGeometry width="50" height="50" relative="1" as="geometry">
            <mxPoint x="460" y="-40" as="sourcePoint" />
            <mxPoint x="510" y="-100" as="targetPoint" />
          </mxGeometry>
        </mxCell>
        <mxCell id="gLUYTTMf_Ll6asyxpFgf-11" value="" style="endArrow=none;html=1;rounded=0;entryX=0.5;entryY=1;entryDx=0;entryDy=0;exitX=0.726;exitY=0.008;exitDx=0;exitDy=0;exitPerimeter=0;" parent="1" source="zPi41bnw9IMBci43e7Ru-2" target="zPi41bnw9IMBci43e7Ru-34" edge="1">
          <mxGeometry width="50" height="50" relative="1" as="geometry">
            <mxPoint x="400" y="-125" as="sourcePoint" />
            <mxPoint x="470.71067811865476" y="-175" as="targetPoint" />
          </mxGeometry>
        </mxCell>
        <mxCell id="gLUYTTMf_Ll6asyxpFgf-12" value="" style="endArrow=none;html=1;rounded=0;entryX=0.5;entryY=1;entryDx=0;entryDy=0;exitX=0.5;exitY=0;exitDx=0;exitDy=0;" parent="1" source="zPi41bnw9IMBci43e7Ru-2" target="zPi41bnw9IMBci43e7Ru-35" edge="1">
          <mxGeometry width="50" height="50" relative="1" as="geometry">
            <mxPoint x="350" y="-160" as="sourcePoint" />
            <mxPoint x="400" y="-210" as="targetPoint" />
          </mxGeometry>
        </mxCell>
        <mxCell id="gLUYTTMf_Ll6asyxpFgf-13" value="" style="endArrow=none;html=1;rounded=0;entryX=0.5;entryY=1;entryDx=0;entryDy=0;exitX=0.667;exitY=0;exitDx=0;exitDy=0;exitPerimeter=0;" parent="1" source="zPi41bnw9IMBci43e7Ru-2" target="zPi41bnw9IMBci43e7Ru-36" edge="1">
          <mxGeometry width="50" height="50" relative="1" as="geometry">
            <mxPoint x="430" y="-100" as="sourcePoint" />
            <mxPoint x="500" y="-260" as="targetPoint" />
          </mxGeometry>
        </mxCell>
        <mxCell id="gLUYTTMf_Ll6asyxpFgf-14" value="" style="endArrow=none;html=1;rounded=0;entryX=0.5;entryY=1;entryDx=0;entryDy=0;exitX=0.25;exitY=0;exitDx=0;exitDy=0;" parent="1" source="zPi41bnw9IMBci43e7Ru-5" target="zPi41bnw9IMBci43e7Ru-37" edge="1">
          <mxGeometry width="50" height="50" relative="1" as="geometry">
            <mxPoint x="833" y="-42" as="sourcePoint" />
            <mxPoint x="910" y="-100" as="targetPoint" />
          </mxGeometry>
        </mxCell>
        <mxCell id="gLUYTTMf_Ll6asyxpFgf-15" value="" style="endArrow=none;html=1;rounded=0;entryX=0.5;entryY=1;entryDx=0;entryDy=0;exitX=0.417;exitY=0;exitDx=0;exitDy=0;exitPerimeter=0;" parent="1" source="zPi41bnw9IMBci43e7Ru-5" target="zPi41bnw9IMBci43e7Ru-39" edge="1">
          <mxGeometry width="50" height="50" relative="1" as="geometry">
            <mxPoint x="780" y="-100" as="sourcePoint" />
            <mxPoint x="830" y="-150" as="targetPoint" />
          </mxGeometry>
        </mxCell>
        <mxCell id="gLUYTTMf_Ll6asyxpFgf-16" value="" style="endArrow=none;html=1;rounded=0;entryX=0.5;entryY=1;entryDx=0;entryDy=0;exitX=0.75;exitY=0;exitDx=0;exitDy=0;" parent="1" source="zPi41bnw9IMBci43e7Ru-5" target="zPi41bnw9IMBci43e7Ru-38" edge="1">
          <mxGeometry width="50" height="50" relative="1" as="geometry">
            <mxPoint x="890" y="-60" as="sourcePoint" />
            <mxPoint x="940" y="-110" as="targetPoint" />
          </mxGeometry>
        </mxCell>
        <mxCell id="O1x9zBhlHoKTBChM7Hry-1" value="&lt;font style=&quot;font-size: 10px;&quot;&gt;1&lt;/font&gt;" style="text;html=1;align=center;verticalAlign=middle;resizable=0;points=[];autosize=1;strokeColor=none;fillColor=none;" parent="1" vertex="1">
          <mxGeometry x="-36" y="15" width="30" height="30" as="geometry" />
        </mxCell>
        <mxCell id="O1x9zBhlHoKTBChM7Hry-2" value="&lt;font style=&quot;font-size: 10px;&quot;&gt;m&lt;/font&gt;" style="text;html=1;align=center;verticalAlign=middle;resizable=0;points=[];autosize=1;strokeColor=none;fillColor=none;" parent="1" vertex="1">
          <mxGeometry x="-33" y="274" width="30" height="30" as="geometry" />
        </mxCell>
        <mxCell id="O1x9zBhlHoKTBChM7Hry-3" value="&lt;font style=&quot;font-size: 10px;&quot;&gt;1&lt;/font&gt;" style="text;html=1;align=center;verticalAlign=middle;resizable=0;points=[];autosize=1;strokeColor=none;fillColor=none;" parent="1" vertex="1">
          <mxGeometry x="24" y="304" width="30" height="30" as="geometry" />
        </mxCell>
        <mxCell id="O1x9zBhlHoKTBChM7Hry-4" value="&lt;font style=&quot;font-size: 10px;&quot;&gt;m&lt;/font&gt;" style="text;html=1;align=center;verticalAlign=middle;resizable=0;points=[];autosize=1;strokeColor=none;fillColor=none;" parent="1" vertex="1">
          <mxGeometry x="334" y="303" width="30" height="30" as="geometry" />
        </mxCell>
        <mxCell id="O1x9zBhlHoKTBChM7Hry-5" value="&lt;font style=&quot;font-size: 10px;&quot;&gt;m&lt;/font&gt;" style="text;html=1;align=center;verticalAlign=middle;resizable=0;points=[];autosize=1;strokeColor=none;fillColor=none;" parent="1" vertex="1">
          <mxGeometry x="395" y="274" width="30" height="30" as="geometry" />
        </mxCell>
        <mxCell id="O1x9zBhlHoKTBChM7Hry-6" value="&lt;font style=&quot;font-size: 10px;&quot;&gt;m&lt;/font&gt;" style="text;html=1;align=center;verticalAlign=middle;resizable=0;points=[];autosize=1;strokeColor=none;fillColor=none;" parent="1" vertex="1">
          <mxGeometry x="475" y="-16" width="30" height="30" as="geometry" />
        </mxCell>
        <mxCell id="O1x9zBhlHoKTBChM7Hry-7" value="&lt;font style=&quot;font-size: 10px;&quot;&gt;1&lt;/font&gt;" style="text;html=1;align=center;verticalAlign=middle;resizable=0;points=[];autosize=1;strokeColor=none;fillColor=none;" parent="1" vertex="1">
          <mxGeometry x="395" y="14" width="30" height="30" as="geometry" />
        </mxCell>
        <mxCell id="O1x9zBhlHoKTBChM7Hry-8" value="&lt;font style=&quot;font-size: 10px;&quot;&gt;1&lt;/font&gt;" style="text;html=1;align=center;verticalAlign=middle;resizable=0;points=[];autosize=1;strokeColor=none;fillColor=none;" parent="1" vertex="1">
          <mxGeometry x="774" y="-15" width="30" height="30" as="geometry" />
        </mxCell>
        <mxCell id="O1x9zBhlHoKTBChM7Hry-10" value="" style="endArrow=none;html=1;rounded=0;exitX=1;exitY=0.5;exitDx=0;exitDy=0;entryX=0;entryY=0.5;entryDx=0;entryDy=0;" parent="1" source="zPi41bnw9IMBci43e7Ru-8" target="zPi41bnw9IMBci43e7Ru-5" edge="1">
          <mxGeometry width="50" height="50" relative="1" as="geometry">
            <mxPoint x="740" y="80" as="sourcePoint" />
            <mxPoint x="790" y="30" as="targetPoint" />
          </mxGeometry>
        </mxCell>
        <mxCell id="lo2fJLBI0ELn5Fms0Vdn-1" value="tb_karyawan" style="rounded=0;whiteSpace=wrap;html=1;" vertex="1" parent="1">
          <mxGeometry x="-540" y="300" width="120" height="60" as="geometry" />
        </mxCell>
        <mxCell id="lo2fJLBI0ELn5Fms0Vdn-2" value="melakukan" style="rhombus;whiteSpace=wrap;html=1;" vertex="1" parent="1">
          <mxGeometry x="-310" y="280" width="100" height="100" as="geometry" />
        </mxCell>
        <mxCell id="lo2fJLBI0ELn5Fms0Vdn-3" value="" style="endArrow=none;html=1;rounded=0;exitX=1;exitY=0.5;exitDx=0;exitDy=0;entryX=0;entryY=0.5;entryDx=0;entryDy=0;" edge="1" parent="1" target="lo2fJLBI0ELn5Fms0Vdn-2">
          <mxGeometry width="50" height="50" relative="1" as="geometry">
            <mxPoint x="-420" y="330" as="sourcePoint" />
            <mxPoint y="260" as="targetPoint" />
          </mxGeometry>
        </mxCell>
        <mxCell id="lo2fJLBI0ELn5Fms0Vdn-4" value="" style="endArrow=none;html=1;rounded=0;entryX=1;entryY=0.5;entryDx=0;entryDy=0;exitX=0;exitY=0.5;exitDx=0;exitDy=0;" edge="1" parent="1" target="lo2fJLBI0ELn5Fms0Vdn-2">
          <mxGeometry width="50" height="50" relative="1" as="geometry">
            <mxPoint x="-90" y="330" as="sourcePoint" />
            <mxPoint x="-100" y="350" as="targetPoint" />
          </mxGeometry>
        </mxCell>
        <mxCell id="lo2fJLBI0ELn5Fms0Vdn-5" value="jabatan" style="ellipse;whiteSpace=wrap;html=1;" vertex="1" parent="1">
          <mxGeometry x="-650" y="380" width="96" height="40" as="geometry" />
        </mxCell>
        <mxCell id="lo2fJLBI0ELn5Fms0Vdn-6" value="no_hp" style="ellipse;whiteSpace=wrap;html=1;" vertex="1" parent="1">
          <mxGeometry x="-560" y="420" width="96" height="40" as="geometry" />
        </mxCell>
        <mxCell id="lo2fJLBI0ELn5Fms0Vdn-7" value="nama_karyawan" style="ellipse;whiteSpace=wrap;html=1;" vertex="1" parent="1">
          <mxGeometry x="-600" y="224" width="120" height="50" as="geometry" />
        </mxCell>
        <mxCell id="lo2fJLBI0ELn5Fms0Vdn-8" value="alamat" style="ellipse;whiteSpace=wrap;html=1;" vertex="1" parent="1">
          <mxGeometry x="-446" y="390" width="96" height="40" as="geometry" />
        </mxCell>
        <mxCell id="lo2fJLBI0ELn5Fms0Vdn-9" value="&lt;u&gt;id_karyawan&lt;/u&gt;" style="ellipse;whiteSpace=wrap;html=1;" vertex="1" parent="1">
          <mxGeometry x="-470" y="190" width="120" height="50" as="geometry" />
        </mxCell>
        <mxCell id="lo2fJLBI0ELn5Fms0Vdn-10" value="" style="endArrow=none;html=1;rounded=0;entryX=0.5;entryY=1;entryDx=0;entryDy=0;exitX=0.25;exitY=0;exitDx=0;exitDy=0;" edge="1" parent="1" source="lo2fJLBI0ELn5Fms0Vdn-1" target="lo2fJLBI0ELn5Fms0Vdn-7">
          <mxGeometry width="50" height="50" relative="1" as="geometry">
            <mxPoint x="-420" y="380" as="sourcePoint" />
            <mxPoint x="-370" y="330" as="targetPoint" />
          </mxGeometry>
        </mxCell>
        <mxCell id="lo2fJLBI0ELn5Fms0Vdn-11" value="" style="endArrow=none;html=1;rounded=0;entryX=0.5;entryY=1;entryDx=0;entryDy=0;exitX=0.75;exitY=0;exitDx=0;exitDy=0;" edge="1" parent="1" source="lo2fJLBI0ELn5Fms0Vdn-1" target="lo2fJLBI0ELn5Fms0Vdn-9">
          <mxGeometry width="50" height="50" relative="1" as="geometry">
            <mxPoint x="-450" y="320" as="sourcePoint" />
            <mxPoint x="-400" y="270" as="targetPoint" />
          </mxGeometry>
        </mxCell>
        <mxCell id="lo2fJLBI0ELn5Fms0Vdn-12" value="" style="endArrow=none;html=1;rounded=0;exitX=0.5;exitY=0;exitDx=0;exitDy=0;entryX=0;entryY=0.75;entryDx=0;entryDy=0;" edge="1" parent="1" source="lo2fJLBI0ELn5Fms0Vdn-5" target="lo2fJLBI0ELn5Fms0Vdn-1">
          <mxGeometry width="50" height="50" relative="1" as="geometry">
            <mxPoint x="-620" y="360" as="sourcePoint" />
            <mxPoint x="-570" y="310" as="targetPoint" />
          </mxGeometry>
        </mxCell>
        <mxCell id="lo2fJLBI0ELn5Fms0Vdn-13" value="" style="endArrow=none;html=1;rounded=0;entryX=0.25;entryY=1;entryDx=0;entryDy=0;exitX=0.5;exitY=0;exitDx=0;exitDy=0;" edge="1" parent="1" source="lo2fJLBI0ELn5Fms0Vdn-6" target="lo2fJLBI0ELn5Fms0Vdn-1">
          <mxGeometry width="50" height="50" relative="1" as="geometry">
            <mxPoint x="-550" y="420" as="sourcePoint" />
            <mxPoint x="-500" y="370" as="targetPoint" />
          </mxGeometry>
        </mxCell>
        <mxCell id="lo2fJLBI0ELn5Fms0Vdn-14" value="" style="endArrow=none;html=1;rounded=0;entryX=0.75;entryY=1;entryDx=0;entryDy=0;exitX=0.5;exitY=0;exitDx=0;exitDy=0;" edge="1" parent="1" source="lo2fJLBI0ELn5Fms0Vdn-8" target="lo2fJLBI0ELn5Fms0Vdn-1">
          <mxGeometry width="50" height="50" relative="1" as="geometry">
            <mxPoint x="-470" y="420" as="sourcePoint" />
            <mxPoint x="-420" y="370" as="targetPoint" />
          </mxGeometry>
        </mxCell>
        <mxCell id="lo2fJLBI0ELn5Fms0Vdn-15" value="id_karyawan" style="ellipse;whiteSpace=wrap;html=1;" vertex="1" parent="1">
          <mxGeometry x="-190" y="440" width="120" height="50" as="geometry" />
        </mxCell>
        <mxCell id="lo2fJLBI0ELn5Fms0Vdn-17" value="" style="endArrow=none;html=1;rounded=0;exitX=1;exitY=0.5;exitDx=0;exitDy=0;entryX=0.19;entryY=1.019;entryDx=0;entryDy=0;entryPerimeter=0;" edge="1" parent="1" source="lo2fJLBI0ELn5Fms0Vdn-15" target="zPi41bnw9IMBci43e7Ru-3">
          <mxGeometry width="50" height="50" relative="1" as="geometry">
            <mxPoint x="-210" y="450" as="sourcePoint" />
            <mxPoint x="-40" y="400" as="targetPoint" />
          </mxGeometry>
        </mxCell>
      </root>
    </mxGraphModel>
  </diagram>
</mxfile>
